<?xml version="1.0" encoding="UTF-8"?>
<svg id="Layer_1" xmlns="http://www.w3.org/2000/svg" version="1.1" viewBox="0 0 420.94 297.64">
  <!-- Generator: Adobe Illustrator 29.0.1, SVG Export Plug-In . SVG Version: 2.1.0 Build 192)  -->
  <defs>
    <style>
      .st0 {
        fill: #b7132a;
      }

      .st1 {
        fill: #fbfcfa;
      }
    </style>
  </defs>
  <rect class="st1" width="420.94" height="297.64"/>
  <g>
    <g>
      <path class="st0" d="M138.02,117.84c3.62-14.36,14.71-7.58,28.68,7.32h164.92s-151.64-5.62-151.64-5.62c-26.04-32.34-48.53-36.94-41.96-1.7Z"/>
      <path class="st0" d="M178.81,172.22h152.81s-131.81,2.3-131.81,2.3c-2.03,5.31-8.18,5.57-21-2.3Z"/>
    </g>
    <g>
      <path d="M111.47,109.98s1.15-12.26,1.72-12.77,16.15-8.62,16.15-8.62c0,0-2.11,5.3-2.74,6.32s-9.06,5.36-9.7,6.38l-5.43,8.68Z"/>
      <path d="M111.47,116.24l6.38-10.28s1.47-2.55,3.19-3.57,4.66-2.11,4.66-2.11v9.7s-6.38,3.51-7.47,5.36-5.62,10.72-5.62,10.72l-1.15-9.83Z"/>
      <path d="M114.09,130.92l5.55-11.62s1.21-3.51,5.43-5.55l1.09-.57,1.4,8.87s-5.04,4.28-6,5.43c-.96,1.15-3.26,6.19-3.7,7.66l-1.47,3.7s-2.43-6.13-2.3-7.91Z"/>
      <path d="M117.79,143.18l4.15-9.32s.64-3.19,3.19-5.3c2.55-2.11,3.7-2.55,3.7-2.55,0,0,1.98,6.64,2.62,7.79,0,0-2.94,3.26-4.53,5.04,0,0-3.57,10.72-4.28,12.64l-.45,1.4s-4.15-8.49-4.4-9.7Z"/>
      <path d="M124.3,156.9l4.02-11.81s.64-3.7,2.43-5.23c1.79-1.53,2.87-2.11,2.87-2.11l3.45,7.4v.96s-4.15,3.51-5.17,5.11-3.26,11.49-3.26,11.49c0,0-3.7-3.89-4.34-5.81Z"/>
      <path d="M130.94,166.15l2.68-9.7s1.28-3.83,2.81-5.3c1.53-1.47,2.68-2.11,2.68-2.11,0,0,4.72,7.4,5.68,8.55l.32.7s-4.28,3.51-5.49,6.13-2.43,8.55-2.55,9.7c0,0-6.26-5.87-6.13-7.98Z"/>
      <path d="M139.87,177.2s1.47-6.77,1.79-8.62,2.11-4.28,3.45-5.87c1.34-1.6,2.3-1.91,2.3-1.91l5.43,7.02s-2.55,3-4.09,5.11c0,0-2.04,7.53-2.39,9.26v1.4s-6.22-5.11-6.48-6.38Z"/>
      <path d="M149.19,185.69l1.79-9.06s.51-2.55,1.85-4.15c1.34-1.6,2.3-2.3,2.3-2.3l6.96,6.96s-2.43,3.83-3.19,5.11l-.45,9.77s-8.87-5.17-9.26-6.32Z"/>
      <path d="M161.77,183.58l3.06-4.34,9.26,6.32s-1.66,3.06-1.91,3.51.32,9.38.32,9.38c0,0-10.09-3.45-11.04-4.66,0,0,.06-8.62.32-10.21Z"/>
      <path d="M175.49,199.22v-8.68l1.47-3.64s5.36,2.43,7.28,2.68,7.28,1.28,11.17.26c0,0-10.66,8.81-13.98,10.09,0,0-3.83.38-5.94-.7Z"/>
      <path d="M105.84,104.82c.44-1.32,1.09-2.5,2.07-3.4.47-.43,1-.85,1.5-1.22.31,4.12-.52,8.63-.6,12.8-.11,5.67-.26,11.75,1.25,17.28,3.32,12.17,8.72,24.31,15.37,35,6.5,10.44,16.06,18.83,25.95,26.01,5.73,4.16,12,7.67,18.8,9.64-2.55-.95-5.45-1.32-8.07-2.13-2.97-.91-5.91-1.95-8.78-3.14-6.49-2.69-12.96-6.17-17.88-11.27-12.53-12.99-23.17-26.77-28.18-44.38-1.7-5.97-2.66-12.16-2.84-18.37-.09-2.92.17-5.76.35-8.65.17-2.74.15-5.54,1.03-8.17Z"/>
      <path d="M93.6,115.66s5.68-7.53,8.62-9.89l-.7,11.17h-7.02s-1.4-.61-.89-1.28Z"/>
      <path d="M92.32,118.98l1.17,1.02h7.58s.38,9.64,1.15,11.23c0,0-3.13.57-7.34.38,0,0-4.72-1.28-5.55-2.23,0,0,.19-6.57,3-10.4Z"/>
      <path d="M89.32,132.64s1.38,1.02,4.17,1.79h8.73s1.98,7.72,2.81,9.06c0,0-4.13,1.91-7.17,1.79s-7.13-1.85-7.96-2.43c0,0-.57-8.94-.57-10.21Z"/>
      <path d="M91.04,146.37l5.3,1.53s3.89.89,5.87-.26l3.96-1.28s2.68,7.53,3.57,8.55c0,0-4.4,2.3-7.85,2.43,0,0-3.26-.06-7.15-1.47l-1.47-.51-2.23-9Z"/>
      <path d="M94.94,158.62s3.64,1.21,5.17,1.6,5.04-.13,7.15-1.15l3.77-1.28s4.79,8.81,5.62,9.83c0,0-4.6,2.43-8.55,2.23s-9.26-1.72-9.26-1.72c0,0-3.7-6.77-3.89-9.51Z"/>
      <path d="M101.13,171.52s5.62,1.09,7.15,1.47,6.96-1.47,6.96-1.47l3.64-1.34s4.28,6.57,5.04,7.21l.38.77s-3.7,1.47-5.3,1.53-11.68-.89-13.72-1.79c0,0-3.32-3.77-4.15-6.38Z"/>
      <path d="M107.77,181.54s7.4,1.21,10.02,1.47,9.26-2.62,9.26-2.62l6.38,6.51s-5.81,3.06-7.47,3.38c0,0-8.43.13-11.11-.57l-7.09-8.17Z"/>
      <path d="M118.55,193.44h8.87s6.96-2.78,8.23-3.99l7.98,4.98s-5.36,3.45-7.15,4.02c0,0-9.32.45-11.3,0l-6.64-5.01Z"/>
      <path d="M130.94,201.52h6.38l9.77-4.85,8.55,4.26s-6.32,4.29-8.36,5.06c0,0-6.64.7-7.91.45,0,0-6.64-3.51-8.43-4.91Z"/>
      <path d="M147.92,208.92l11.81-6.77s6.96,2.11,9.57,2.11c0,0-3.57,2.74-10.69,3.89s-9.93.89-10.69.77Z"/>
      <g>
        <path d="M189.52,139.82v1.17c0,3.38-1.03,5.53-3.33,6.61,2.77,1.08,3.85,3.56,3.85,7.03v2.67c0,5.07-2.67,7.79-7.83,7.79h-8.11v-32.83h7.79c5.35,0,7.64,2.49,7.64,7.55ZM179.25,136.96v8.68h2.02c1.92,0,3.1-.84,3.1-3.47v-1.83c0-2.34-.8-3.38-2.63-3.38h-2.49ZM179.25,150.33v10.08h2.95c1.74,0,2.67-.8,2.67-3.24v-2.86c0-3.05-.98-3.99-3.33-3.99h-2.3Z"/>
        <path d="M207.75,140.15c0-5.25,2.77-8.25,7.83-8.25s7.83,3,7.83,8.25v17.07c0,5.25-2.77,8.25-7.83,8.25s-7.83-3-7.83-8.25v-17.07ZM212.91,157.55c0,2.34,1.03,3.24,2.67,3.24s2.67-.89,2.67-3.24v-17.73c0-2.35-1.03-3.24-2.67-3.24s-2.67.89-2.67,3.24v17.73Z"/>
        <path d="M248.86,131.9c5.02,0,7.6,3,7.6,8.25v1.03h-4.88v-1.36c0-2.35-.94-3.24-2.58-3.24s-2.58.89-2.58,3.24c0,6.75,10.08,8.02,10.08,17.4,0,5.25-2.63,8.25-7.69,8.25s-7.69-3-7.69-8.25v-2.02h4.88v2.34c0,2.34,1.03,3.19,2.67,3.19s2.67-.84,2.67-3.19c0-6.75-10.08-8.02-10.08-17.4,0-5.25,2.58-8.25,7.6-8.25Z"/>
        <path d="M278.87,141.32v23.78h-4.64v-32.83h6.47l5.3,19.65v-19.65h4.6v32.83h-5.3l-6.42-23.78Z"/>
        <path d="M326.36,165.1h-5.21l-.89-5.96h-6.33l-.89,5.96h-4.74l5.25-32.83h7.55l5.25,32.83ZM314.59,154.69h4.97l-2.49-16.6-2.49,16.6Z"/>
      </g>
      <g>
        <path d="M206.32,190.01c0-3.76,1.86-6.19,5.62-6.19s5.66,2.43,5.66,6.19v12.73c0,3.73-1.86,6.19-5.66,6.19s-5.62-2.46-5.62-6.19v-12.73ZM209.03,202.87c0,2.25.95,3.55,2.92,3.55s2.92-1.3,2.92-3.55v-13.01c0-2.21-.91-3.55-2.92-3.55s-2.92,1.34-2.92,3.55v13.01Z"/>
        <path d="M224.01,208.67v-22.11h-4.54v-2.5h11.81v2.5h-4.54v22.11h-2.74Z"/>
        <path d="M233.19,190.01c0-3.76,1.86-6.19,5.62-6.19s5.66,2.43,5.66,6.19v12.73c0,3.73-1.86,6.19-5.66,6.19s-5.62-2.46-5.62-6.19v-12.73ZM235.9,202.87c0,2.25.95,3.55,2.92,3.55s2.92-1.3,2.92-3.55v-13.01c0-2.21-.91-3.55-2.92-3.55s-2.92,1.34-2.92,3.55v13.01Z"/>
        <path d="M254.95,208.67v-24.61h2.74v22.11h7.03v2.5h-9.77Z"/>
        <path d="M269.79,203.72l-.95,4.96h-2.53l4.71-24.61h3.97l4.71,24.61h-2.74l-.95-4.96h-6.22ZM270.14,201.36h5.48l-2.78-14.2-2.71,14.2Z"/>
        <path d="M292.71,189.97v.67h-2.6v-.81c0-2.21-.84-3.52-2.81-3.52s-2.81,1.3-2.81,3.48c0,5.52,8.26,6.05,8.26,12.97,0,3.73-1.79,6.15-5.55,6.15s-5.52-2.43-5.52-6.15v-1.41h2.57v1.55c0,2.21.91,3.52,2.88,3.52s2.88-1.3,2.88-3.52c0-5.48-8.23-6.01-8.23-12.94,0-3.8,1.76-6.15,5.45-6.15s5.48,2.43,5.48,6.15Z"/>
        <path d="M298.94,208.67v-22.11h-4.54v-2.5h11.81v2.5h-4.54v22.11h-2.74Z"/>
        <path d="M311.07,184.06v24.61h-2.74v-24.61h2.74ZM310.89,179.53v3.16h-2.39v-3.16h2.39Z"/>
        <path d="M318.27,197.99l-1.44,2.43v8.26h-2.74v-24.61h2.74v11.88l6.54-11.88h2.78l-6.22,11.21,6.43,13.39h-2.81l-5.27-10.69Z"/>
      </g>
    </g>
  </g>
</svg>